<?xml version="1.0" encoding="UTF-8" standalone="no"?>
<!DOCTYPE svg PUBLIC "-//W3C//DTD SVG 1.1//EN" "http://www.w3.org/Graphics/SVG/1.1/DTD/svg11.dtd">
<svg version="1.1" xmlns="http://www.w3.org/2000/svg" xmlns:xlink="http://www.w3.org/1999/xlink" preserveAspectRatio="xMidYMid meet" viewBox="0 0 640 640" width="400" height="400"><defs><path d="M326.38 251.56C328.06 258.45 328.13 259.75 327.12 261.68C326.6 262.63 326.34 262.97 325.71 262.97C325.45 262.97 325.11 262.91 324.67 262.81C322.78 262.41 322.74 262.13 323.34 257.49C324.04 252.46 324.49 248.16 324.46 247.15C324.44 246.5 324.49 246.19 324.6 246.19C324.88 246.19 325.53 248.12 326.38 251.56ZM374.58 331.28L384.38 331.28C384.28 332.47 384.22 333.13 384.21 333.26C384.1 334.33 384.03 336.99 384.03 339.14C384.03 339.4 384.03 340.7 384.03 343.04C380.57 342.74 378.65 342.57 378.26 342.53C375.08 342.25 368.01 342.02 362.52 342.02C357.03 342.02 348.74 341.8 344.08 341.51C343.52 341.48 340.68 341.31 335.58 341.01C335.58 347.52 335.58 351.14 335.58 351.86C335.58 358.7 335.44 362.66 335.23 362.66C335.02 362.66 334.88 358.82 334.88 352.26C334.88 345.59 334.74 341.68 334.53 341.46C334.25 341.18 334.25 340.84 334.5 340.38C334.71 339.99 334.92 337.05 334.95 333.77C334.96 333.38 334.99 331.42 335.06 327.89C335.9 327.68 336.36 327.57 336.46 327.55C337.09 327.36 338.19 327.25 339.08 327.25C339.24 327.25 339.4 327.26 339.54 327.26C339.55 327.25 339.56 327.17 339.59 327.03L374.58 331.28ZM308.99 328C308.99 329.75 309.83 336.09 310.22 337.5C310.88 339.87 313.61 362.21 313.3 362.72C313.12 362.94 311.55 363.23 309.8 363.34C309.58 363.35 308.5 363.43 306.55 363.57C306.55 362.38 306.55 361.72 306.55 361.59C306.55 360.46 306.72 357.23 306.9 354.46C307.07 351.64 307.39 344.85 307.6 339.37C307.81 333.83 308.05 328.96 308.16 328.45C308.29 327.93 308.58 327.6 308.78 327.6C308.9 327.6 308.99 327.72 308.99 328ZM327.19 272.25C330.12 274.68 331.56 277.23 332.05 280.79C332.22 281.86 332.19 289.95 332.05 298.83C331.87 307.65 331.7 326.14 331.66 339.87C331.66 341.54 331.62 349.89 331.56 364.92L327.08 364.92C327.21 352.95 327.28 346.29 327.29 344.96C327.5 323.42 327.19 311.21 326.31 305.84C326 303.97 325.68 300.86 325.61 298.94C325.54 297.07 325.3 293.96 325.09 292.1C324.84 290.23 324.77 287.57 324.88 286.22C325.51 279.6 325.47 279.21 324.77 275.93C324.39 274.06 323.83 272.19 323.51 271.63C322.87 270.46 322.88 269.89 323.4 269.89C324.01 269.89 325.35 270.69 327.19 272.25ZM308.12 155.83C305.29 157.92 303.85 159.56 303.47 161.26C303.26 162.11 303.01 164.71 302.91 167.08C302.66 172.34 302.52 173.08 301.47 173.47C301.05 173.64 300.6 174.15 300.49 174.55C300.25 175.68 301.09 179.18 302.1 181.16C303.12 183.08 303.75 186.08 303.75 188.91C303.75 192.02 301.79 194.79 295.21 201.06C286.29 209.55 284.65 212.88 283.98 223.68C283.84 225.6 283.7 227.87 283.67 228.66C283.6 229.45 283.67 235.22 283.81 241.44C284.05 252.01 284.12 253.08 284.96 256.02C285.49 257.83 286.68 260.49 287.79 262.24C292.13 269.25 292.34 272.08 290.94 303.57C290.7 309.79 290.45 318.45 290.49 322.8C290.49 330.32 290.63 333.03 291.43 343.72C291.64 346.21 291.99 352.03 292.24 356.72C292.48 361.36 292.83 365.38 293.04 365.6C293.25 365.83 293.32 366.11 293.25 366.22C293.15 366.39 286.82 366.68 279.19 366.9C274.57 367.04 271.43 367.11 269.32 367.11C266.08 367.11 265.27 366.94 265.27 366.56C265.27 366.11 264.22 364.36 262.92 362.66C261.63 360.97 256.56 354.01 251.69 347.28C241.69 333.43 240.29 331.79 234.06 326.87C231.58 324.95 229.58 323.2 229.58 323.03C229.58 322.86 229.97 322.01 230.42 321.22C230.88 320.42 231.51 319.18 231.79 318.56C232.05 317.97 232.23 317.69 232.51 317.69C232.69 317.69 232.91 317.8 233.22 317.99C233.85 318.37 234.45 318.56 235.03 318.56C236.01 318.56 236.92 318 237.8 316.86C241.27 312.45 243.19 305.61 246.06 287.86C247 282.03 248.65 273.38 249.73 268.63C250.82 263.88 252.08 258.23 252.57 256.08C253.62 251.27 256.52 230.98 256.52 228.43C256.52 227.24 256.07 225.55 255.19 223.51C254.07 220.91 253.69 220.4 252.43 220.06C250.64 219.61 249.73 218.88 248.16 216.67C247.53 215.77 246.34 214.52 245.54 213.96C239.24 209.38 232.49 204.8 230.46 203.83C227.91 202.58 225.32 201.95 222.83 201.95C220.83 201.95 218.9 202.35 217.09 203.16C216.29 203.5 213.32 204.57 210.48 205.47C201.95 208.19 197.78 212.54 195.19 221.42C192.92 229.11 192.82 230.47 192.5 256.93C192.01 294.3 191.59 300.01 189.07 304.54C187.36 307.59 186.1 308.38 182.78 308.38C182.59 308.38 181.68 308.38 180.05 308.38C180.11 312.18 180.15 314.29 180.15 314.71C180.29 322.97 180.89 387.37 181.17 424.97C181.18 426.92 181.26 436.64 181.41 454.15L282.37 454.37L383.33 454.6C385.75 452.83 387.09 451.85 387.36 451.66C394.46 446.51 408.35 436.17 414.12 431.7C416.04 430.17 419.3 427.74 421.36 426.27C423.42 424.8 425.17 423.22 425.28 422.82C425.36 422.51 425.59 422.37 425.86 422.37C426.33 422.37 426.89 422.78 426.89 423.39C426.89 423.73 429.09 427.8 431.79 432.43C434.48 437.07 436.68 441.03 436.68 441.25C436.68 441.48 436.02 441.99 435.21 442.39C431.47 444.36 429.62 446.06 424.51 452.28C424.38 452.43 423.77 453.19 422.65 454.54C439.61 454.64 449.04 454.7 450.92 454.71C454.8 454.73 458.52 454.73 461.93 454.73C472.13 454.73 479.47 454.67 479.68 454.54C480.1 454.26 480.13 450.81 479.92 431.47C479.78 418.98 479.47 386.97 479.19 360.4C478.66 308.15 478.49 303.52 476.7 297.02C475.13 291.36 471.67 287.18 462.68 280.05C455.89 274.68 452.95 269.31 452.08 260.66C451.69 256.87 451.8 255.18 452.88 247.03C453.47 242.62 453.65 239.46 453.65 232.61C453.65 223.96 453.65 223.79 452.56 220.18C450.54 213.28 443.29 198.75 439.69 194.34C435.88 189.72 431.86 187.14 428.55 187.14C427.97 187.14 427.42 187.22 426.89 187.38C422.86 188.57 416.88 194.39 411.98 201.74C409.96 204.74 409.29 206.21 408.49 209.26C407.58 212.77 407.51 213.62 407.65 218.76C407.79 226.34 407.82 233.69 407.72 238.83C407.58 243.92 408.17 256.08 408.7 259.36C409.57 264.79 411.28 272.7 412.3 275.76C413.84 280.56 415.45 282.6 418.28 283.56C419.58 283.95 420.77 284.58 420.94 284.92C421.12 285.26 421.36 286.78 421.47 288.42C421.48 288.61 421.56 289.58 421.71 291.31C420.39 292.76 419.65 293.57 419.51 293.74C416.78 296.68 405.93 314.15 404.71 317.54C403.52 320.82 402.89 325 402.22 334.22C401.87 338.91 401.45 342.36 401.17 342.82C400.95 343.19 400.53 343.37 399.3 343.37C398.27 343.37 396.67 343.24 394.14 342.98C390.19 342.59 387.5 342.08 387.36 341.68C386.9 340.55 386.66 333.03 387.04 332.41C387.21 332.08 389.7 331.8 392.66 331.68C392.66 331.68 392.66 331.68 392.66 331.68L388.63 181.27L388.63 181.27C383.84 181.38 381.17 181.43 380.64 181.44C344.5 182.29 333.13 182.69 332.96 182.97C332.85 183.14 332.68 193.71 332.54 206.49C332.43 219.33 332.22 229.79 332.08 229.79C331.94 229.79 331.56 227.41 331.24 224.53C330.09 214.46 328.52 211.07 322.46 205.81C320.33 204 318.02 201.86 317.29 201.01C315.99 199.59 315.96 199.48 316.13 196.77C316.24 195.3 316.55 193.77 316.83 193.37C317.6 192.47 318.44 188.85 318.44 186.48C318.44 185.29 318.72 182.12 319.03 179.35C319.59 174.66 319.59 174.15 319.03 170.76C318.72 168.72 318.44 166.35 318.44 165.33C318.44 162.73 317.67 160.75 315.43 157.7C313.72 155.32 313.23 154.93 311.65 154.76C311.48 154.74 311.3 154.73 311.14 154.73C310.08 154.73 309.21 155.05 308.12 155.83Z" id="dpS7rywG1"></path></defs><g><g><g><use xlink:href="#dpS7rywG1" opacity="1" fill="#000000" fill-opacity="1"></use><g><use xlink:href="#dpS7rywG1" opacity="1" fill-opacity="0" stroke="#000000" stroke-width="1" stroke-opacity="0"></use></g></g></g></g></svg>