<?xml version="1.0" encoding="UTF-8"?>
<svg width="620" height="620" viewBox="0 0 620 360" xmlns="http://www.w3.org/2000/svg">
 <g transform="matrix(.61706 0 0 .61706 3.2048 32.497)">
  <path d="m295.78 86.817v248.27l391.93 0.32058c-23 18.791-37.359 44.691-37.171 78.685l-389.07-0.23146c-3.727-131.88-190.84-131.43-194.9-0.76233-28.103-0.20968-32.001-6.5924-32.272-32.48v-99c-0.35285-44.242-5.8781-15.037 26.872-98.935 33.698-89.434 24.408-81.167 54.888-83.475l179.72-12.388zm-77.846 146.38 1.5512-105.48-100.05 6.2047c-18.24 1.2219-18.391 1.3364-24.819 22.492l-25.594 68.251c-8.5982 20.934-7.2297 27.103 16.287 24.043l132.62-15.512zm748.7 102.39 0.19058 55.777-64.608 22.87-56.727-0.03627c0.2309-32.343-13.21-59.544-37.042-78.653l158.19 0.04181z" fill-rule="evenodd"/>
  <path d="m335.83 12.159h631.32v301.7h-631.32z"/>
  <path d="m241 412a77 77 0 1 0 -154 0 77 77 0 1 0 154 0"/>
  <path d="m825 412a77 77 0 1 0 -154 0 77 77 0 1 0 154 0"/>
 </g>
</svg>
