<?xml version="1.0" encoding="UTF-8" standalone="no"?>
<!DOCTYPE svg PUBLIC "-//W3C//DTD SVG 1.1//EN" "http://www.w3.org/Graphics/SVG/1.1/DTD/svg11.dtd">
<svg version="1.1" xmlns="http://www.w3.org/2000/svg" xmlns:xlink="http://www.w3.org/1999/xlink" preserveAspectRatio="xMidYMid meet" viewBox="0 0 640 640" width="200" height="200"><defs><path d="M316.65 324.52C392.23 324.59 434.22 324.62 442.62 324.63C435.23 330.54 430.61 338.68 430.67 349.38C418.17 349.37 318.13 349.31 305.63 349.3C304.43 307.82 244.29 307.96 242.99 349.06C233.95 349 232.7 346.99 232.61 338.85C232.61 335.73 232.61 310.82 232.61 307.71C232.5 293.79 230.72 302.97 241.25 276.58C252.08 248.45 249.1 251.05 258.89 250.32C262.74 250.06 282 248.77 316.65 246.43L316.65 324.52ZM292.13 259.29C272.84 260.46 262.12 261.11 259.98 261.24C254.11 261.63 254.07 261.66 252 268.32C251.18 270.47 244.6 287.64 243.77 289.79C241.01 296.37 241.45 298.31 249.01 297.35C251.85 297.03 266.06 295.4 291.63 292.47L292.13 259.29ZM532.33 342.23L511.56 349.42C500.62 349.42 494.55 349.41 493.33 349.41C493.41 339.24 489.09 330.68 481.43 324.67C484.82 324.67 501.76 324.67 532.27 324.68L532.33 342.23Z" id="a4DtvlitCg"></path><path d="M329.53 222.94L532.43 222.94L532.43 317.85L329.53 317.85L329.53 222.94Z" id="dbp0rpJGt"></path><path d="M299.05 348.72C299.05 335.34 287.97 324.5 274.3 324.5C260.63 324.5 249.55 335.34 249.55 348.72C249.55 362.1 260.63 372.94 274.3 372.94C287.97 372.94 299.05 362.1 299.05 348.72" id="b10GU2n5Hk"></path><path d="M486.75 348.72C486.75 335.34 475.67 324.5 462 324.5C448.33 324.5 437.25 335.34 437.25 348.72C437.25 362.1 448.33 372.94 462 372.94C475.67 372.94 486.75 362.1 486.75 348.72" id="bUMwi5GsU"></path></defs><g><g><g><use xlink:href="#a4DtvlitCg" opacity="1" fill="#000000" fill-opacity="1"></use><g><use xlink:href="#a4DtvlitCg" opacity="1" fill-opacity="0" stroke="#000000" stroke-width="1" stroke-opacity="0"></use></g></g><g><use xlink:href="#dbp0rpJGt" opacity="1" fill="#000000" fill-opacity="1"></use><g><use xlink:href="#dbp0rpJGt" opacity="1" fill-opacity="0" stroke="#000000" stroke-width="1" stroke-opacity="0"></use></g></g><g><use xlink:href="#b10GU2n5Hk" opacity="1" fill="#000000" fill-opacity="1"></use><g><use xlink:href="#b10GU2n5Hk" opacity="1" fill-opacity="0" stroke="#000000" stroke-width="1" stroke-opacity="0"></use></g></g><g><use xlink:href="#bUMwi5GsU" opacity="1" fill="#000000" fill-opacity="1"></use><g><use xlink:href="#bUMwi5GsU" opacity="1" fill-opacity="0" stroke="#000000" stroke-width="1" stroke-opacity="0"></use></g></g></g></g></svg>