<?xml version="1.0" encoding="UTF-8" standalone="no"?>
<!DOCTYPE svg PUBLIC "-//W3C//DTD SVG 1.1//EN" "http://www.w3.org/Graphics/SVG/1.1/DTD/svg11.dtd">
<svg version="1.1" xmlns="http://www.w3.org/2000/svg" xmlns:xlink="http://www.w3.org/1999/xlink" preserveAspectRatio="xMidYMid meet" viewBox="0 0 640 640" width="50" height="50"><defs><path d="M201.05 356.22L198.64 351.74L201.05 347.26L229.06 347.26L231.48 351.74L229.06 356.22L201.05 356.22Z" id="c14cAfGVI7"></path><path d="M209.99 341.41L206.83 339.31L210.37 337.89L221.36 339.02L224.52 341.12L220.98 342.53L209.99 341.41Z" id="hK5SS5Tox"></path><path d="M211.74 329.42L208.82 327.01L212.49 325.96L223.31 328.21L226.23 330.62L222.56 331.66L211.74 329.42Z" id="bifAD52hk"></path><path d="M214.77 317.68L212.13 314.98L215.89 314.32L226.4 317.65L229.05 320.35L225.28 321.01L214.77 317.68Z" id="b6gs5nxpoj"></path><path d="M219.04 306.31L216.7 303.36L220.51 303.08L230.61 307.47L232.95 310.42L229.14 310.7L219.04 306.31Z" id="c1yVdXvBA4"></path><path d="M231.1 285.18L229.44 281.82L233.23 282.32L242.18 288.67L243.84 292.03L240.05 291.52L231.1 285.18Z" id="g4RGcMHwcc"></path><path d="M238.76 275.66L237.47 272.15L241.19 273.03L249.4 280.25L250.69 283.76L246.98 282.88L238.76 275.66Z" id="f3Yu16vH89"></path><path d="M247.4 266.97L246.49 263.34L250.09 264.6L257.49 272.62L258.4 276.24L254.8 274.98L247.4 266.97Z" id="b31JTlzwfG"></path><path d="M256.92 259.2L256.41 255.51L259.86 257.13L266.35 265.85L266.87 269.55L263.42 267.93L256.92 259.2Z" id="d4CcfLsGlt"></path><path d="M278.2 246.79L278.48 243.07L281.51 245.36L286 255.21L285.72 258.93L282.69 256.65L278.2 246.79Z" id="e6rZVVajE"></path><path d="M289.71 242.28L290.39 238.61L293.16 241.19L296.57 251.45L295.89 255.12L293.13 252.54L289.71 242.28Z" id="g5ezYqRCt"></path><path d="M301.65 238.97L302.72 235.39L305.19 238.24L307.49 248.79L306.42 252.37L303.95 249.52L301.65 238.97Z" id="e6gafChP4N"></path><path d="M313.87 236.89L315.32 233.44L317.48 236.52L318.63 247.25L317.18 250.71L315.03 247.62L313.87 236.89Z" id="b18WKNMwz"></path><path d="M338.65 236.52L340.81 233.44L342.26 236.89L341.1 247.62L338.95 250.71L337.5 247.25L338.65 236.52Z" id="a240VQQCO"></path><path d="M350.94 238.24L353.41 235.39L354.48 238.97L352.18 249.52L349.71 252.37L348.64 248.79L350.94 238.24Z" id="a1IQCKECJ1"></path><path d="M362.97 241.19L365.74 238.61L366.42 242.28L363 252.54L360.24 255.12L359.56 251.45L362.97 241.19Z" id="b9tVBwoe0"></path><path d="M374.62 245.36L377.65 243.07L377.93 246.79L373.44 256.65L370.41 258.93L370.13 255.21L374.62 245.36Z" id="f2ksDIA5pO"></path><path d="M396.27 257.13L399.72 255.51L399.2 259.2L392.71 267.93L389.26 269.55L389.77 265.85L396.27 257.13Z" id="c2fltBVQLt"></path><path d="M406.04 264.6L409.64 263.34L408.73 266.97L401.33 274.98L397.73 276.24L398.64 272.62L406.04 264.6Z" id="bZWdumTCz"></path><path d="M414.94 273.03L418.66 272.15L417.37 275.66L409.15 282.88L405.44 283.76L406.73 280.25L414.94 273.03Z" id="ekSVx9rBS"></path><path d="M422.9 282.32L426.69 281.82L425.03 285.18L416.08 291.52L412.29 292.03L413.95 288.67L422.9 282.32Z" id="anAbihTTH"></path><path d="M435.62 303.08L439.43 303.36L437.09 306.31L426.99 310.7L423.18 310.42L425.52 307.47L435.62 303.08Z" id="dpHvtMfv"></path><path d="M440.24 314.32L444 314.98L441.36 317.68L430.84 321.01L427.08 320.35L429.72 317.65L440.24 314.32Z" id="adCSaigZm"></path><path d="M443.64 325.96L447.31 327.01L444.39 329.42L433.57 331.66L429.9 330.62L432.82 328.21L443.64 325.96Z" id="b6gX39sozZ"></path><path d="M445.76 337.89L449.3 339.31L446.14 341.41L435.15 342.53L431.61 341.12L434.77 339.02L445.76 337.89Z" id="k8TwxxPEG"></path><path d="M215.77 293.65L215.98 288.59L220.36 285.89L244.62 299.56L244.42 304.62L240.03 307.31L215.77 293.65Z" id="c2NzOHf7sm"></path><path d="M260.58 246.65L263.35 242.37L268.53 242.17L282.54 265.84L279.77 270.12L274.59 270.32L260.58 246.65Z" id="abBwsX5IH"></path><path d="M323.48 227.8L328.06 225.45L332.65 227.8L332.65 255.14L328.06 257.49L323.48 255.14L323.48 227.8Z" id="a2HPnnbx1H"></path><path d="M387.6 242.17L392.78 242.37L395.55 246.65L381.54 270.32L376.36 270.12L373.59 265.84L387.6 242.17Z" id="c1aVGVWF8n"></path><path d="M435.77 285.89L440.15 288.59L440.36 293.65L416.1 307.31L411.71 304.62L411.51 299.56L435.77 285.89Z" id="d4A712pL0"></path><path d="M455.08 347.26L457.49 351.74L455.08 356.22L427.07 356.22L424.65 351.74L427.07 347.26L455.08 347.26Z" id="a23EnJ11z6"></path><path d="M317.59 322.18C316.71 322.18 315.87 321.84 315.24 321.23C315.09 321.08 313.84 319.88 313.69 319.73C313.39 319.44 313.6 318.95 314.02 318.95C316.66 318.95 337.75 318.95 340.39 318.95C340.81 318.95 341.02 319.44 340.72 319.73C340.56 319.88 339.32 321.08 339.17 321.23C338.54 321.84 337.7 322.18 336.82 322.18C332.97 322.18 319.51 322.18 317.59 322.18ZM342.91 310.82C341.72 310.82 340.62 310.49 339.68 309.91C339.06 314.64 334.89 318.32 329.89 318.32C329.35 318.32 325.06 318.32 324.52 318.32C319.09 318.32 314.64 313.98 314.64 308.68C314.64 307.66 314.64 299.47 314.64 298.45C314.64 297.61 315.35 296.92 316.22 296.92C323.54 297.37 330.87 297.37 338.19 296.92C339.06 296.92 339.77 297.61 339.77 298.45C339.77 298.6 339.77 299.79 339.77 299.94C340.68 299.39 341.76 299.08 342.91 299.08C346.23 299.08 348.93 301.71 348.93 304.95C348.93 308.19 346.23 310.82 342.91 310.82ZM342.91 300.94C341.65 300.94 340.52 301.5 339.77 302.37C339.77 302.89 339.77 307.01 339.77 307.53C340.52 308.4 341.65 308.95 342.91 308.95C345.18 308.95 347.01 307.16 347.01 304.95C347.01 302.74 345.18 300.94 342.91 300.94ZM321.03 293.32C320.65 292.59 319.81 291.96 319.27 291.28C318.98 290.91 318.75 290.51 318.57 290.08C318.15 289.03 318.16 287.83 318.56 286.78C318.98 285.69 319.78 284.81 320.34 283.8C320.68 283.14 320.98 282.42 320.81 281.68C320.67 281.02 320.2 280.43 319.52 280.25C320.31 280.18 320.99 280.73 321.33 281.39C321.67 282.04 321.68 282.78 321.52 283.48C321.18 284.92 320.13 286.06 319.72 287.46C319.45 288.32 319.61 289.49 320.1 290.26C320.69 291.22 321.61 292 321.97 293.08C322.46 294.51 321.87 296.27 320.47 296.98C321.39 295.97 321.65 294.55 321.03 293.32ZM326.62 290.77C327.81 288.63 330.37 288.05 332.41 286.98C332.57 286.9 332.78 286.78 332.91 286.7C333.64 286.23 334.33 285.63 334.67 284.82C335.07 283.86 334.79 282.83 334.23 282C333.14 280.41 331.19 279.76 329.47 279.05C331.84 279.38 334.46 280.07 335.62 282.33C336.15 283.38 336.2 284.58 335.67 285.64C335.07 286.86 333.93 287.71 332.71 288.3C330.96 289.15 328.67 289.62 327.52 291.31C326.29 293.11 326.96 295.49 327.4 297.46C326.34 295.44 325.41 292.94 326.62 290.77ZM330.1 293.19C329.6 292 329.45 290.61 329.71 289.34C329.77 289.05 329.85 288.76 329.93 288.46C330.01 288.17 330.1 287.88 330.15 287.59C330.17 287.47 330.18 287.35 330.18 287.24C330.18 287.22 330.18 287.15 330.18 287.22C330.12 285.51 328.54 284.47 327.22 283.6C326.22 282.94 325.19 282.25 324.54 281.23C323.99 280.36 323.7 279.28 324.14 278.31C323.95 279.7 324.89 280.91 326 281.67C327 282.36 328.15 282.82 329.16 283.5C330.15 284.24 331.01 285.05 331.39 286.26C331.64 287.06 331.48 287.89 331.24 288.68C330.97 289.56 330.78 290.44 330.84 291.38C330.89 292.19 331.09 293.1 331.48 293.81C332.24 295.28 333.42 296.37 334.91 297.13C332.72 296.7 330.94 295.19 330.1 293.19Z" id="b38igdI0Gj"></path><path d="M208.24 397.66L208.24 373.77L223.63 373.77L223.63 376.88L215.27 376.88L215.27 383.81L223.49 383.81L223.49 386.78L215.09 386.78L215.09 394.69L224.07 394.69L224.07 397.66L208.24 397.66Z" id="a3gDnU6Le"></path><path d="M440.34 376.99L440.34 384.3L448.7 384.3L448.7 387.41L440.19 387.41L440.19 397.66L433.02 397.66L433.02 373.88L449.46 373.88L449.46 376.99L440.34 376.99Z" id="awZg9Vm8Q"></path><path d="M328.06 369.88C319.99 369.88 313.44 376.27 313.44 384.15C313.44 392.03 319.99 398.42 328.06 398.42C336.14 398.42 342.69 392.03 342.69 384.15C342.69 376.27 336.14 369.88 328.06 369.88Z" id="b10q9ojloX"></path><path d="M248.97 305.53L333.82 379.99L325.28 388.32L248.97 305.53Z" id="a24IaJbRsS"></path></defs><g><g><g><use xlink:href="#c14cAfGVI7" opacity="1" fill="#2fb868" fill-opacity="1"></use><g><use xlink:href="#c14cAfGVI7" opacity="1" fill-opacity="0" stroke="#000000" stroke-width="1" stroke-opacity="0"></use></g></g><g><use xlink:href="#hK5SS5Tox" opacity="1" fill="#2fb868" fill-opacity="1"></use><g><use xlink:href="#hK5SS5Tox" opacity="1" fill-opacity="0" stroke="#000000" stroke-width="1" stroke-opacity="0"></use></g></g><g><use xlink:href="#bifAD52hk" opacity="1" fill="#2fb868" fill-opacity="1"></use><g><use xlink:href="#bifAD52hk" opacity="1" fill-opacity="0" stroke="#000000" stroke-width="1" stroke-opacity="0"></use></g></g><g><use xlink:href="#b6gs5nxpoj" opacity="1" fill="#2fb868" fill-opacity="1"></use><g><use xlink:href="#b6gs5nxpoj" opacity="1" fill-opacity="0" stroke="#000000" stroke-width="1" stroke-opacity="0"></use></g></g><g><use xlink:href="#c1yVdXvBA4" opacity="1" fill="#2fb868" fill-opacity="1"></use><g><use xlink:href="#c1yVdXvBA4" opacity="1" fill-opacity="0" stroke="#000000" stroke-width="1" stroke-opacity="0"></use></g></g><g><use xlink:href="#g4RGcMHwcc" opacity="1" fill="#2fb868" fill-opacity="1"></use><g><use xlink:href="#g4RGcMHwcc" opacity="1" fill-opacity="0" stroke="#000000" stroke-width="1" stroke-opacity="0"></use></g></g><g><use xlink:href="#f3Yu16vH89" opacity="1" fill="#2fb868" fill-opacity="1"></use><g><use xlink:href="#f3Yu16vH89" opacity="1" fill-opacity="0" stroke="#000000" stroke-width="1" stroke-opacity="0"></use></g></g><g><use xlink:href="#b31JTlzwfG" opacity="1" fill="#2fb868" fill-opacity="1"></use><g><use xlink:href="#b31JTlzwfG" opacity="1" fill-opacity="0" stroke="#000000" stroke-width="1" stroke-opacity="0"></use></g></g><g><use xlink:href="#d4CcfLsGlt" opacity="1" fill="#2fb868" fill-opacity="1"></use><g><use xlink:href="#d4CcfLsGlt" opacity="1" fill-opacity="0" stroke="#000000" stroke-width="1" stroke-opacity="0"></use></g></g><g><use xlink:href="#e6rZVVajE" opacity="1" fill="#2fb868" fill-opacity="1"></use><g><use xlink:href="#e6rZVVajE" opacity="1" fill-opacity="0" stroke="#000000" stroke-width="1" stroke-opacity="0"></use></g></g><g><use xlink:href="#g5ezYqRCt" opacity="1" fill="#2fb868" fill-opacity="1"></use><g><use xlink:href="#g5ezYqRCt" opacity="1" fill-opacity="0" stroke="#000000" stroke-width="1" stroke-opacity="0"></use></g></g><g><use xlink:href="#e6gafChP4N" opacity="1" fill="#2fb868" fill-opacity="1"></use><g><use xlink:href="#e6gafChP4N" opacity="1" fill-opacity="0" stroke="#000000" stroke-width="1" stroke-opacity="0"></use></g></g><g><use xlink:href="#b18WKNMwz" opacity="1" fill="#2fb868" fill-opacity="1"></use><g><use xlink:href="#b18WKNMwz" opacity="1" fill-opacity="0" stroke="#000000" stroke-width="1" stroke-opacity="0"></use></g></g><g><use xlink:href="#a240VQQCO" opacity="1" fill="#2fb868" fill-opacity="1"></use><g><use xlink:href="#a240VQQCO" opacity="1" fill-opacity="0" stroke="#000000" stroke-width="1" stroke-opacity="0"></use></g></g><g><use xlink:href="#a1IQCKECJ1" opacity="1" fill="#2fb868" fill-opacity="1"></use><g><use xlink:href="#a1IQCKECJ1" opacity="1" fill-opacity="0" stroke="#000000" stroke-width="1" stroke-opacity="0"></use></g></g><g><use xlink:href="#b9tVBwoe0" opacity="1" fill="#2fb868" fill-opacity="1"></use><g><use xlink:href="#b9tVBwoe0" opacity="1" fill-opacity="0" stroke="#000000" stroke-width="1" stroke-opacity="0"></use></g></g><g><use xlink:href="#f2ksDIA5pO" opacity="1" fill="#2fb868" fill-opacity="1"></use><g><use xlink:href="#f2ksDIA5pO" opacity="1" fill-opacity="0" stroke="#000000" stroke-width="1" stroke-opacity="0"></use></g></g><g><use xlink:href="#c2fltBVQLt" opacity="1" fill="#2fb868" fill-opacity="1"></use><g><use xlink:href="#c2fltBVQLt" opacity="1" fill-opacity="0" stroke="#000000" stroke-width="1" stroke-opacity="0"></use></g></g><g><use xlink:href="#bZWdumTCz" opacity="1" fill="#2fb868" fill-opacity="1"></use><g><use xlink:href="#bZWdumTCz" opacity="1" fill-opacity="0" stroke="#000000" stroke-width="1" stroke-opacity="0"></use></g></g><g><use xlink:href="#ekSVx9rBS" opacity="1" fill="#2fb868" fill-opacity="1"></use><g><use xlink:href="#ekSVx9rBS" opacity="1" fill-opacity="0" stroke="#000000" stroke-width="1" stroke-opacity="0"></use></g></g><g><use xlink:href="#anAbihTTH" opacity="1" fill="#2fb868" fill-opacity="1"></use><g><use xlink:href="#anAbihTTH" opacity="1" fill-opacity="0" stroke="#000000" stroke-width="1" stroke-opacity="0"></use></g></g><g><use xlink:href="#dpHvtMfv" opacity="1" fill="#2fb868" fill-opacity="1"></use><g><use xlink:href="#dpHvtMfv" opacity="1" fill-opacity="0" stroke="#000000" stroke-width="1" stroke-opacity="0"></use></g></g><g><use xlink:href="#adCSaigZm" opacity="1" fill="#2fb868" fill-opacity="1"></use><g><use xlink:href="#adCSaigZm" opacity="1" fill-opacity="0" stroke="#000000" stroke-width="1" stroke-opacity="0"></use></g></g><g><use xlink:href="#b6gX39sozZ" opacity="1" fill="#2fb868" fill-opacity="1"></use><g><use xlink:href="#b6gX39sozZ" opacity="1" fill-opacity="0" stroke="#000000" stroke-width="1" stroke-opacity="0"></use></g></g><g><use xlink:href="#k8TwxxPEG" opacity="1" fill="#2fb868" fill-opacity="1"></use><g><use xlink:href="#k8TwxxPEG" opacity="1" fill-opacity="0" stroke="#000000" stroke-width="1" stroke-opacity="0"></use></g></g><g><use xlink:href="#c2NzOHf7sm" opacity="1" fill="#2fb868" fill-opacity="1"></use><g><use xlink:href="#c2NzOHf7sm" opacity="1" fill-opacity="0" stroke="#000000" stroke-width="1" stroke-opacity="0"></use></g></g><g><use xlink:href="#abBwsX5IH" opacity="1" fill="#2fb868" fill-opacity="1"></use><g><use xlink:href="#abBwsX5IH" opacity="1" fill-opacity="0" stroke="#000000" stroke-width="1" stroke-opacity="0"></use></g></g><g><use xlink:href="#a2HPnnbx1H" opacity="1" fill="#2fb868" fill-opacity="1"></use><g><use xlink:href="#a2HPnnbx1H" opacity="1" fill-opacity="0" stroke="#000000" stroke-width="1" stroke-opacity="0"></use></g></g><g><use xlink:href="#c1aVGVWF8n" opacity="1" fill="#2fb868" fill-opacity="1"></use><g><use xlink:href="#c1aVGVWF8n" opacity="1" fill-opacity="0" stroke="#000000" stroke-width="1" stroke-opacity="0"></use></g></g><g><use xlink:href="#d4A712pL0" opacity="1" fill="#2fb868" fill-opacity="1"></use><g><use xlink:href="#d4A712pL0" opacity="1" fill-opacity="0" stroke="#000000" stroke-width="1" stroke-opacity="0"></use></g></g><g><use xlink:href="#a23EnJ11z6" opacity="1" fill="#2fb868" fill-opacity="1"></use><g><use xlink:href="#a23EnJ11z6" opacity="1" fill-opacity="0" stroke="#000000" stroke-width="1" stroke-opacity="0"></use></g></g><g><use xlink:href="#b38igdI0Gj" opacity="1" fill="#2fb868" fill-opacity="1"></use><g><use xlink:href="#b38igdI0Gj" opacity="1" fill-opacity="0" stroke="#000000" stroke-width="1" stroke-opacity="0"></use></g></g><g><use xlink:href="#a3gDnU6Le" opacity="1" fill="#2fb868" fill-opacity="1"></use><g><use xlink:href="#a3gDnU6Le" opacity="1" fill-opacity="0" stroke="#000000" stroke-width="1" stroke-opacity="0"></use></g></g><g><use xlink:href="#awZg9Vm8Q" opacity="1" fill="#2fb868" fill-opacity="1"></use><g><use xlink:href="#awZg9Vm8Q" opacity="1" fill-opacity="0" stroke="#000000" stroke-width="1" stroke-opacity="0"></use></g></g><g><use xlink:href="#b10q9ojloX" opacity="1" fill="#2fb868" fill-opacity="1"></use><g><use xlink:href="#b10q9ojloX" opacity="1" fill-opacity="0" stroke="#000000" stroke-width="1" stroke-opacity="0"></use></g></g><g><use xlink:href="#a24IaJbRsS" opacity="1" fill="#2fb868" fill-opacity="1"></use><g><use xlink:href="#a24IaJbRsS" opacity="1" fill-opacity="0" stroke="#000000" stroke-width="1" stroke-opacity="0"></use></g></g></g></g></svg>